<svg xmlns="http://www.w3.org/2000/svg" enable-background="new 0 0 32 32" viewBox="0 0 32 32">
<path d="M16 24.5V30h-2v-1h-1c-.553 0-1-.448-1-1s.447-1 1-1h1v-2.551C14.813 24.527 15.175 24.49 16 24.5zM19 24.5c.686 0 1.355-.077 2-.216V30h-2v-1h-1c-.553 0-1-.448-1-1s.447-1 1-1h1V24.5zM29.871 10.814L27 9.738V8.5c0-.957-.386-1.823-1.009-2.455.05-1.071-.33-2.963-1.206-3.777-.403-.375-1.035-.353-1.413.052-.376.404-.353 1.037.052 1.413.156.146.362.673.481 1.308-.275-.032-.425-.084-1.016.021-.485-1.465-1.753-2.386-2.765-2.512-.541-.068-1.048.321-1.115.869-.068.548.32 1.048.869 1.116.242.03.942.45 1.156 1.262.016.059.048.108.073.162C20.429 6.596 20 7.496 20 8.5V10c0 1.657-1.343 3-3 3h-5.564C10.939 8.783 7.348 5.5 3 5.5c-.553 0-1 .448-1 1s.447 1 1 1c3.243 0 5.931 2.39 6.415 5.5H7.899C7.434 10.721 5.414 9 3 9c-.553 0-1 .448-1 1s.447 1 1 1c1.654 0 2.958 1.346 3 3 .125 4.896 4.969 9 10 9h3c4.418 0 8-3.582 8-8v-2.738l2.871-1.076C30.042 11.121 30.042 10.879 29.871 10.814zM21.832 17.555c-2.589 3.883-9.477 4.313-12.689-1.04-.284-.474-.131-1.088.343-1.372.475-.285 1.088-.131 1.372.343 2.404 4.008 7.481 3.706 9.311.96.306-.46.925-.585 1.387-.277C22.015 16.474 22.139 17.095 21.832 17.555zM24 10c-.552 0-1-.448-1-1 0-.552.448-1 1-1s1 .448 1 1C25 9.552 24.552 10 24 10z"/></svg>